<?xml version="1.0" encoding="UTF-8"?>
<svg width="612px" height="550px" viewBox="0 0 612 550" version="1.1" xmlns="http://www.w3.org/2000/svg" xmlns:xlink="http://www.w3.org/1999/xlink">
    <g stroke="none" stroke-width="1" fill-rule="evenodd">
        <path d="M37.1274868,333 L119.592759,333 C144.146901,412.90972 218.539594,471 306.5,471 C394.460406,471 468.853099,412.90972 493.407241,333 L574.872513,333 C548.24599,457.025519 437.980672,550 306,550 C174.019328,550 63.7540097,457.025519 37.1274868,333 Z M37.1274868,217 C63.7540097,92.9744807 174.019328,0 306,0 C437.980672,0 548.24599,92.9744807 574.872513,217 L493.097014,217 C468.231513,137.606106 394.09307,80 306.5,80 C218.90693,80 144.768487,137.606106 119.902989,217 L37.1274868,217 Z"></path>
        <path d="M0,284.9 L0,264.7 C0,249.3 8.7,239 26.6,239 C40.3,239 46.9,245.7 51.1,254.5 L37.9,261 C36,256.7 33,253.8 27.3,253.8 C19.7,253.8 16.8,259.1 16.8,265.6 L16.8,284 C16.8,290.5 19.8,295.8 27.4,295.8 C33,295.8 36.3,293.1 38.3,288.5 L51.4,295.2 C47.6,304 41.4,310.6 26.8,310.6 C8.9,310.6 0,300.3 0,284.9 Z M83.5,310.6 C65.6,310.6 56.9,300.5 56.9,285 L56.9,264.7 C56.9,249.3 65.6,239 83.5,239 C101.3,239 109.9,249.3 109.9,264.7 L109.9,285 C109.9,300.5 101.3,310.6 83.5,310.6 Z M83.5,295.9 C90.8,295.9 93.2,291.8 93.2,283.9 L93.2,265.6 C93.2,257.9 90.8,253.8 83.5,253.8 C76.2,253.8 73.6,257.9 73.6,265.6 L73.6,283.9 C73.6,291.8 76.2,295.9 83.5,295.9 Z M157.2,298.2 L147.6,298.2 L136.8,276.4 L136.4,276.4 L136.4,309.8 L120.4,309.8 L120.4,239.8 L133.7,239.8 L152.2,276.1 L152.6,276.1 L171.2,239.8 L184.4,239.8 L184.4,309.8 L168.4,309.8 L168.4,276.4 L168,276.4 L157.2,298.2 Z M197.2,309.8 L197.2,239.8 L213.8,239.8 L213.8,309.8 L197.2,309.8 Z M281.4,239.8 L281.4,309.8 L266.8,309.8 L243,271.4 L242.6,271.4 L242.6,309.8 L226.6,309.8 L226.6,239.8 L241.5,239.8 L265,277 L265.4,277 L265.4,239.8 L281.4,239.8 Z M318.3,253.8 C311.1,253.8 307.7,259.1 307.7,265.6 L307.7,283.9 C307.7,290.4 310.5,295.9 318.1,295.9 C323.6,295.9 326.5,293.9 328.1,291.8 L328.1,282.5 L316,282.5 L316,269.2 L343.2,269.2 L343.2,298 C337.9,304.9 330.4,310.6 317.5,310.6 C299.6,310.6 290.9,300.2 290.9,284.8 L290.9,264.7 C290.9,249.3 299.8,239 317.7,239 C331.4,239 338,245.7 342.2,254.5 L329.3,261 C327.4,257 324.5,253.8 318.3,253.8 Z M399.6,310.6 C388.9,310.6 380.5,306.4 374.9,303 L380.6,290.5 C388.8,294.3 394.7,296 400.1,296 C406.6,296 409.3,292.8 409.3,289.3 C409.3,276.7 377,284.1 377,259.4 C377,246.3 385.2,239 400.4,239 C410.6,239 418.3,242.8 423.7,246.4 L416.8,258.4 C411.2,255.1 406.2,253.4 401.1,253.4 C395.7,253.4 393.2,255.5 393.2,258.8 C393.2,268.9 425.7,263.4 425.7,288.7 C425.7,302.2 417.7,310.6 399.6,310.6 Z M458.6,310.6 C440.7,310.6 432,300.5 432,285 L432,264.7 C432,249.3 440.7,239 458.6,239 C476.4,239 485,249.3 485,264.7 L485,285 C485,300.5 476.4,310.6 458.6,310.6 Z M458.6,295.9 C465.9,295.9 468.3,291.8 468.3,283.9 L468.3,265.6 C468.3,257.9 465.9,253.8 458.6,253.8 C451.3,253.8 448.7,257.9 448.7,265.6 L448.7,283.9 C448.7,291.8 451.3,295.9 458.6,295.9 Z M519.8,310.6 C501.9,310.6 493.2,300.5 493.2,285 L493.2,264.7 C493.2,249.3 501.9,239 519.8,239 C537.6,239 546.2,249.3 546.2,264.7 L546.2,285 C546.2,300.5 537.6,310.6 519.8,310.6 Z M519.8,295.9 C527.1,295.9 529.5,291.8 529.5,283.9 L529.5,265.6 C529.5,257.9 527.1,253.8 519.8,253.8 C512.5,253.8 509.9,257.9 509.9,265.6 L509.9,283.9 C509.9,291.8 512.5,295.9 519.8,295.9 Z M611.5,239.8 L611.5,309.8 L596.9,309.8 L573.1,271.4 L572.7,271.4 L572.7,309.8 L556.7,309.8 L556.7,239.8 L571.6,239.8 L595.1,277 L595.5,277 L595.5,239.8 L611.5,239.8 Z"></path>
    </g>
</svg>
