<?xml version="1.0" encoding="utf-8"?>
<!-- Generator: Adobe Illustrator 23.0.1, SVG Export Plug-In . SVG Version: 6.00 Build 0)  -->
<svg version="1.1" id="Layer_1" xmlns="http://www.w3.org/2000/svg" xmlns:xlink="http://www.w3.org/1999/xlink" x="0px" y="0px"
	 viewBox="0 0 250 36.9" style="enable-background:new 0 0 250 36.9;" xml:space="preserve">
<style type="text/css">
	.st0{fill:#FFFFFF;}
</style>
<g>
	<path class="st0" d="M29.1,19C29.1,9,24.7,3.1,16,3.1h-4.6v26.4c0,3.2,1,3.7,5.2,3.7C24.2,33.2,29.1,30.3,29.1,19 M3.3,2.8H1.1
		C0.8,0.5,1,0,7.4,0h9.1c13,0,18.6,6.8,18.6,18c0,10.8-5.3,18-18.2,18H0.1c-0.1-0.5-0.1-1.3,0-2c4.8-0.3,5.7-0.7,5.7-4.2V5.1
		C5.7,3,5.3,2.8,3.3,2.8"/>
	<path class="st0" d="M58,21.3L53.1,7.7l-4.7,13.6H58z M56.8,0.4C57,1.6,57.3,2.5,58,4.2l10.4,27.7c0.5,1.3,1,1.9,3.3,1.9h1
		c0.3,1.5,0,2.4-1.1,2.4H57c-0.1-0.5-0.1-1.3,0-2c4.9-0.1,5.4-0.6,4.9-2l-2.8-7.9H47.4L45.6,30c-1,3.1-1,3.9,1.5,3.9H51
		c0.3,1.5,0,2.4-1.1,2.4H36.9c-0.1-0.5-0.1-1.3,0-2c3.4-0.5,3.9-0.8,5.1-4.2L51,5.4c1.5-4,2-4.9,4.2-4.9h1.7V0.4z"/>
	<path class="st0" d="M90.5,1.1c0.1,0.4,0.1,1.5,0,2C86.6,3.4,86,4.5,86,6.6v24.9c0,1.9,0.4,2.2,2.4,2.2h2.4
		c0.3,1.5,0.2,2.4-1.1,2.4H76c-0.2-0.5-0.2-1.3,0-2c3.6-0.7,4.5-1.2,4.5-3.3V5.6c0-1.9-0.4-2.2-2.5-2.2h-2.2c-0.3-1.3,0-2.4,1.9-2.4
		L90.5,1.1L90.5,1.1z"/>
	<path class="st0" d="M142.3,1.1c0.2,0.7,0.2,1.3,0,2c-4.2,0.3-4.5,1.2-4.3,2.7l2.2,25.6c0.1,1.7,0.8,1.9,4.3,2.4
		c0.1,1.5,0,2.4-1.3,2.4h-15.9c-0.2-0.7-0.2-1.3,0-2l2.4-0.1c3.8-0.3,4.4-0.8,4.2-3.4l-2-22.8L121.2,34c-0.8,1.9-1.1,2.2-2.2,2.2
		L106.5,7.7l-1.4,23.5c-0.1,2-0.1,2.6,4.7,2.6h2.4c0.3,1.5,0.1,2.4-1.1,2.4H96.3c-0.1-0.7-0.1-1.3,0-2c5-0.3,5.4-1.3,5.5-3.6
		l1.9-24.6c0.1-1.7-0.1-2.2-4.6-2.4c-0.3-1.2,0-2.4,1.9-2.4h9.1l11.3,25.2l10.4-25.2L142.3,1.1L142.3,1.1z"/>
	<path class="st0" d="M167.2,1.1c0.1,0.4,0.1,1.5,0,2c-4.7,0.3-5.6,0.8-5.6,4.2v23.2c0,1.7,0.8,2.2,2,2.2h2.9c3.3,0,3.8-0.3,5.7-5
		l1.3-3.3c1.3-0.1,2,0.6,1.5,2.2c-1,3.1-1.8,6.2-2.4,9.4h-22c-0.1-0.7-0.1-1.3,0-2c4.3-0.3,5.4-1,5.4-4.4V5.6c0-1.9-0.6-2.2-2.5-2.2
		h-2.2c-0.3-1.3,0-2.4,1.9-2.4L167.2,1.1L167.2,1.1z"/>
	<path class="st0" d="M203.7,1.1c0.1,2.4,0.4,4.8,0.7,7.1c0.3,1.6-0.3,2.5-1.7,2.4l-0.6-2.4c-0.8-3.2-1.7-4-4.2-4h-7.2v13.5h4.7
		c1.3,0,1.6-0.5,1.8-1.9l0.3-2.7h0.5c0.9,0,1.4,0.4,1.3,2c-0.1,3.3-0.1,6.9,0,10.3c-0.4,0.2-1.1,0.2-1.6,0c-0.6-4.1-1.1-4.5-2.4-4.5
		h-4.7v9.2c0,1.9,0.4,2.7,3.4,2.7h3.9c3.3,0,3.8-0.3,5.7-5l1.3-3.3c1.3-0.1,1.9,0.6,1.5,2.2c-0.9,3-1.8,6.2-2.4,9.4h-24.8
		c-0.2-0.7-0.2-1.3,0-2c4.8-0.3,5.6-0.7,5.6-4.2V5.6c0-1.9-0.4-2.2-2.4-2.2h-2.2c-0.2-1.3,0-2.4,2-2.4L203.7,1.1L203.7,1.1z"/>
	<path class="st0" d="M225.1,21c4.5,0,8-0.8,8-7.9c0-7.1-3.6-9.3-8.7-9.3h-1.5V21H225.1z M214.8,3.4h-2.2c-0.3-1.3,0-2.4,1.9-2.5
		c2.2-0.2,4.8-0.2,11.2-0.2c8.6,0,13.4,4.8,13.4,12c0,4.4-2.4,8-6.1,9.8c0,0,3.4,3.6,5.1,5.2c5.9,5.6,7.9,6,11.8,6
		c0.4,1.9-0.7,3.2-5.5,3.2c-4.2,0-7-1-10.3-4.4c-1.5-1.5-3.1-3.6-4.3-6c-1.1-2.4-1.2-2.5-4-2.5h-3v7.7c0,1.5,0.4,2.1,2.7,2.1h2.3
		c0.1,1.5,0,2.4-1.3,2.4h-14.2c-0.1-0.6-0.1-1.3,0-2c3.9-0.3,4.8-0.8,4.8-4V5.8C217.3,3.7,216.7,3.4,214.8,3.4"/>
</g>
</svg>
