<?xml version="1.0" encoding="utf-8"?>
<!-- Generator: Adobe Illustrator 25.2.1, SVG Export Plug-In . SVG Version: 6.00 Build 0)  -->
<svg version="1.1" id="Ebene_1" xmlns="http://www.w3.org/2000/svg" xmlns:xlink="http://www.w3.org/1999/xlink" x="0px" y="0px"
	 viewBox="0 0 425.2 48.9" style="enable-background:new 0 0 425.2 48.9;" xml:space="preserve">
<rect x="272.8" y="27.3" width="15.8" height="3.7"/>
<g>
	<path d="M9.6,5.1L8.2,41.8v0.6c0,3.1,0.9,3.8,5.9,4.1v1.7c-3.6-0.3-5-0.4-7-0.4c-2,0-3.4,0.1-7.1,0.4v-1.7c5-0.4,5.7-0.9,5.8-4.7
		L7.3,7V6.6c0-3.3-1-4-5.9-4.2V0.6c2.8,0.2,3.8,0.3,5.8,0.3c2.6,0,4-0.1,6.7-0.4l13.2,35.8L40.5,0.5c3.2,0.3,4.7,0.4,6.8,0.4
		c1.8,0,2.9-0.1,5.6-0.3v1.8c-4.8,0.3-5.9,1-5.9,4.2V7l0.8,34.8c0.1,3.8,0.7,4.4,5.8,4.7v1.7c-4.5-0.4-6.2-0.6-8.9-0.6
		c-2.7,0-4.4,0.1-8.9,0.6v-1.7c4.8-0.3,5.9-1.1,5.9-4.4v-0.4L41.2,5.1L29.5,36.7l-0.8,2.3l-1,2.6l-0.9,2.7l-0.8,2.3h-1.1l-0.8-2.3
		l-1-2.8l-1-2.8l-0.9-2.5L9.6,5.1z"/>
	<path d="M72,46.5c-6.4,0-9.3-5-9.3-16h21.1c-0.1-10.9-4.6-16.7-13-16.7c-8.5,0-13.8,6.9-13.8,17.8c0,10.9,5.3,17.3,14.5,17.3
		c6.9,0,11.5-4.3,12.4-11.6H81C80.2,43.2,77.1,46.5,72,46.5 M62.8,27.9c0.7-8.1,3.4-12.3,7.9-12.3c4.6,0,6.9,4,7.4,12.3H62.8z"/>
	<path d="M88,16.4v-1.3c4-0.4,6.4-0.8,9.4-1.6c0.4,2.6,0.5,3.8,0.6,5.9v0.8c1.6-4,4.6-6.4,8.3-6.4c3.5,0,6.2,2.3,6.2,5.7
		c0,2.1-1.2,3.4-3,3.4c-1.6,0-2.9-1-2.9-2.4c0-0.1,0.1-0.4,0.1-0.7l0.1-0.7v-0.6c0-1-0.8-1.7-2.1-1.7c-3.7,0-6,4.5-6,11.5V43
		c0,3,0.7,3.6,5,3.8v1.4c-3.9-0.4-5.4-0.4-7.9-0.4c-2.6,0-4,0.1-7.9,0.4v-1.4c4.3-0.2,5.1-0.8,5.1-3.8V21v-1.1
		c-0.1-3-0.4-3.4-4.1-3.5H88z"/>
	<path d="M139.5,13.1v11.7H138c-1.3-6.2-3.9-9.1-8.2-9.1c-5.3,0-8.4,5.7-8.4,15.9c0,9.9,2.8,14.9,8.2,14.9c4.4,0,7-3.1,7.9-9.3h2.9
		c-0.9,7.6-5,11.7-11.3,11.7c-8.2,0-13.8-6.9-13.8-17.3c0-10.6,5.7-17.8,14-17.8c3,0,5,0.8,7.2,3l1.9-3.6H139.5z"/>
	<path d="M160.4,46.5c-6.4,0-9.3-5-9.4-16h21.1c-0.1-10.9-4.6-16.7-13-16.7c-8.5,0-13.8,6.9-13.8,17.8c0,10.9,5.3,17.3,14.5,17.3
		c6.9,0,11.5-4.3,12.4-11.6h-2.8C168.5,43.2,165.4,46.5,160.4,46.5 M151.2,27.9c0.7-8.1,3.4-12.3,7.9-12.3c4.6,0,6.9,4,7.4,12.3
		H151.2z"/>
	<path d="M205.1,40.9V0c-3.5,0.9-6.7,1.5-10.7,1.9v1.2c4.5,0,5,0.5,5,4.2v12.4c-2.6-4.2-4.7-5.5-8.5-5.5c-7.6,0-12.9,7.2-12.9,17.4
		s5.4,17.4,13.1,17.4c4,0,6.8-1.8,8.8-5.8c0.3,2.7,0.3,3,1,5.7c2.9-0.9,4.1-1.2,8.3-1.7l1.1-0.1v-1.2
		C205.5,45.6,205.1,45.2,205.1,40.9 M191.7,46.9c-5.1,0-7.8-5.3-7.8-15.4c0-10.3,2.5-15.3,7.6-15.3c5.2,0,7.9,5.4,7.9,15.8
		C199.5,41.8,196.8,46.9,191.7,46.9"/>
	<path d="M227.9,46.5c-6.4,0-9.3-5-9.3-16h21.1c-0.1-10.9-4.6-16.7-13-16.7c-8.5,0-13.8,6.9-13.8,17.8c0,10.9,5.3,17.3,14.5,17.3
		c6.9,0,11.5-4.3,12.4-11.6h-2.8C236.1,43.2,233,46.5,227.9,46.5 M218.7,27.9c0.7-8.1,3.4-12.3,7.9-12.3c4.6,0,6.9,4,7.4,12.3H218.7
		z"/>
	<path d="M245.7,48.9V37.1l1.6-0.1c1.3,6.4,4.2,9.6,9.2,9.6c4.2,0,7.3-2.8,7.3-6.4c0-2.4-1.3-4-4.8-5.6l-2.7-1.2l-3.3-1.5
		c-5.2-2.4-6.8-4.4-6.8-8.5c0-5.6,4.4-9.4,10.6-9.4c2.8,0,4.8,0.6,7.2,2.3l1.2-2.9h1.3v11h-1.6c-0.6-5.7-3-8.4-7.4-8.4
		c-3.8,0-6.7,2.5-6.7,5.9c0,2.8,1.1,3.8,7.5,6.6l3,1.3c5.4,2.3,7.3,4.6,7.3,8.8c0,5.9-4.7,10.2-11.4,10.2c-3.3,0-5.8-0.9-8.5-3
		l-1.7,3.2H245.7z"/>
	<path d="M322.1,12.3c0-3.7-1.6-6.9-4.2-9c-2.4-1.8-5.2-2.6-9.8-2.6h-18.6v1.8c5.1,0.3,5.8,0.9,5.8,4.7v34.4c0,3.8-0.6,4.3-5.8,4.7
		V48h17.9c5.2,0,8.1-0.6,11-2.5c3.5-2.3,5.9-6.6,5.9-11c0-3.8-1.6-7.3-4.4-9.4c-1.5-1.1-3-1.8-5.6-2.3
		C319.4,20.9,322.1,17.3,322.1,12.3 M301.2,3h6c6,0,8.6,2.9,8.6,9.5c0,3.3-0.8,5.6-2.3,7.4c-1.6,1.8-3.5,2.3-7.4,2.3h-4.8V3z
		 M308,24.5c3.8,0,5.9,0.6,7.5,2.3c1.6,1.6,2.5,4.7,2.5,8.1c0,7.1-3.5,11-9.8,11h-2.6c-3.8,0-4.4-0.6-4.4-3.7V24.5H308z"/>
	<path d="M345.1,46.5c-6.4,0-9.3-5-9.4-16h21.1c-0.1-10.9-4.6-16.7-13-16.7c-8.5,0-13.8,6.9-13.8,17.8c0,10.9,5.3,17.3,14.4,17.3
		c6.9,0,11.5-4.3,12.4-11.6h-2.8C353.2,43.2,350.1,46.5,345.1,46.5 M335.9,27.9c0.7-8.1,3.4-12.3,7.9-12.3c4.6,0,6.9,4,7.4,12.3
		H335.9z"/>
	<path d="M360.6,16.7v-1.2c4.1-0.6,6.5-1.1,9.3-2.1c0.4,1.6,0.6,3.5,0.7,6.2c2.5-3.8,5.5-5.5,9.6-5.5c4.2,0,7.9,2.2,9.3,5.7
		c0.7,1.7,1.1,3.7,1.1,6.4v17c0,3,0.7,3.6,5,3.8v1.4c-3.8-0.4-5.2-0.4-7.7-0.4c-2.6,0-4,0.1-7.7,0.4v-1.4c3.8-0.1,4.7-0.8,4.7-3.7
		V25.8c0-6.2-1.8-8.6-6.4-8.6c-4.8,0-7.4,3-7.4,8.9v17.1c0,2.8,0.9,3.5,4.6,3.7v1.4c-3.7-0.4-5.1-0.4-7.6-0.4c-2.5,0-4,0.1-7.6,0.4
		v-1.4c4.3-0.2,5-0.8,5-3.8V21.1v-1.1c-0.1-2.9-0.5-3.3-4-3.3C361.3,16.7,361,16.7,360.6,16.7"/>
	<path d="M398.4,48l19.2-31.6h-8.7c-4.6,0-5.7,1-8.3,7.4h-1.4l1.6-9.2h24.4l-19.3,31.6h8.3c4.8,0,6.8-1.9,8.9-8.4h1.5L422.8,48
		H398.4z"/>
</g>
</svg>
