<?xml version="1.0" encoding="utf-8"?>
<svg version="1.1" id="Ebene_1" xmlns="http://www.w3.org/2000/svg" xmlns:xlink="http://www.w3.org/1999/xlink" x="0px" y="0px"
	 viewBox="0 0 651.5 96.7" style="enable-background:new 0 0 651.5 96.7;" xml:space="preserve">
<g>
	<g>
		<path class="st0" d="M263.1,82.2V66.3h2.2v1.8c0.6-1.1,2-2,3.8-2c3.4,0,5.2,2.6,5.2,6c0,3.4-2,6-5.3,6c-1.8,0-3.1-0.8-3.7-1.9v6
			H263.1 M268.7,68c-2,0-3.4,1.7-3.4,4c0,2.3,1.3,4,3.4,4c2.1,0,3.4-1.7,3.4-4C272.1,69.7,270.8,68,268.7,68"/>
		<path class="st0" d="M287.7,72c0,3.5-2.4,6.1-5.8,6.1c-3.4,0-5.8-2.6-5.8-6.1c0-3.5,2.4-6,5.8-6C285.3,65.9,287.7,68.5,287.7,72
			 M285.4,72c0-2.6-1.7-4.1-3.6-4.1c-1.9,0-3.6,1.4-3.6,4.1c0,2.7,1.7,4.1,3.6,4.1C283.8,76.1,285.4,74.7,285.4,72"/>
		<polygon class="st0" points="299.1,66.3 302,74.9 304.5,66.3 306.9,66.3 303.2,77.7 300.9,77.7 297.9,69 294.9,77.7 292.5,77.7
			288.8,66.3 291.2,66.3 293.8,74.9 296.8,66.3 		"/>
		<path class="st0" d="M318.8,74.5c-0.6,2-2.5,3.6-5.1,3.6c-3.1,0-5.7-2.2-5.7-6.1c0-3.6,2.6-6,5.5-6c3.5,0,5.5,2.4,5.5,6
			c0,0.3,0,0.6-0.1,0.7h-8.6c0,2,1.5,3.5,3.4,3.5c1.9,0,2.8-1,3.2-2.3L318.8,74.5 M316.6,70.8c-0.1-1.6-1.1-2.9-3.1-2.9
			c-1.9,0-3,1.4-3.1,2.9H316.6z"/>
		<path class="st0" d="M327.9,68.6c-0.3,0-0.7-0.1-1-0.1c-1.9,0-3.1,1-3.1,3.5v5.7h-2.2V66.3h2.2v2c0.8-1.8,2.3-2.2,3.4-2.2
			c0.3,0,0.6,0,0.7,0.1V68.6"/>
		<path class="st0" d="M340,74.5c-0.6,2-2.5,3.6-5.1,3.6c-3.1,0-5.7-2.2-5.7-6.1c0-3.6,2.6-6,5.5-6c3.5,0,5.5,2.4,5.5,6
			c0,0.3,0,0.6,0,0.7h-8.6c0.1,2,1.5,3.5,3.4,3.5c1.9,0,2.8-1,3.2-2.3L340,74.5 M337.7,70.8c0-1.6-1.1-2.9-3.1-2.9
			c-1.9,0-3,1.4-3.1,2.9H337.7z"/>
		<path class="st0" d="M350.7,76c-0.5,1.1-1.8,2-3.5,2c-3.3,0-5.4-2.7-5.4-6c0-3.2,2.2-6,5.4-6c2,0,3.1,1,3.5,1.9v-7.4h2.2v15.1
			c0,1.1,0.1,1.9,0.1,2.1h-2.2c0-0.3-0.1-0.9-0.1-1.5V76 M347.4,76c2,0,3.3-1.8,3.3-4.1c0-2.3-1.2-4-3.3-4c-2,0-3.4,1.7-3.4,4
			C344,74.3,345.2,76,347.4,76"/>
		<path class="st0" d="M362.1,77.7V60.5h2.2v7.4c0.5-1,1.9-1.9,3.8-1.9c3.5,0,5.2,2.7,5.2,6c0,3.4-1.9,6.1-5.3,6.1
			c-1.7,0-3-0.7-3.7-2v1.7H362.1 M367.7,67.9c-2,0-3.4,1.5-3.4,4c0,2.5,1.4,4.1,3.4,4.1c2,0,3.4-1.6,3.4-4.1
			C371.1,69.5,369.8,67.9,367.7,67.9"/>
		<polygon class="st0" points="376.4,82.5 379.2,76.5 374.3,66.3 376.9,66.3 380.4,74.2 383.8,66.3 386.2,66.3 378.8,82.5 		"/>
		<path class="st0" d="M414.2,63.1v4.1c0,5.1-2.5,7.9-7.5,7.9h-2.4v12h-5V55.3h7.4C411.8,55.3,414.2,58,414.2,63.1 M404.4,59.8v10.8
			h2.4c1.6,0,2.5-0.7,2.5-3v-4.8c0-2.3-0.9-3-2.5-3H404.4z"/>
		<polygon class="st0" points="416.1,55.3 421.1,55.3 421.1,82.6 429.3,82.6 429.3,87.1 416.1,87.1 		"/>
		<path class="st0" d="M435.9,55.3v24.6c0,2.3,1,3.1,2.6,3.1c1.6,0,2.6-0.8,2.6-3.1V55.3h4.7v24.3c0,5.1-2.5,8-7.5,8
			c-4.9,0-7.5-2.9-7.5-8V55.3H435.9"/>
		<path class="st0" d="M456.3,69.4h7v10.1c0,5.1-2.5,8-7.5,8c-4.9,0-7.5-2.9-7.5-8V62.9c0-5.1,2.6-8,7.5-8c4.9,0,7.5,2.9,7.5,8V66
			h-4.7v-3.4c0-2.3-1-3.1-2.6-3.1c-1.6,0-2.6,0.9-2.6,3.1v17.2c0,2.3,1,3.1,2.6,3.1c1.6,0,2.6-0.8,2.6-3.1v-5.9h-2.3V69.4"/>
		<path class="st0" d="M478.8,83.5h-3.9l-0.7-4.5h-4.8l-0.7,4.5h-3.6l4-24.8h5.7L478.8,83.5z M469.9,75.6h3.8l-1.9-12.6L469.9,75.6z
			"/>
		<polygon class="st0" points="483.8,65.5 483.8,83.5 480.3,83.5 480.3,58.7 485.2,58.7 489.2,73.5 489.2,58.7 492.6,58.7
			492.6,83.5 488.6,83.5 		"/>
		<path class="st0" d="M495.1,58.7h6.2c3.9,0,5.8,2.2,5.8,6.1v12.6c0,4-1.9,6.1-5.8,6.1h-6.2V58.7 M499,62.2V80h2.2
			c1.2,0,2-0.6,2-2.4V64.6c0-1.8-0.7-2.4-2-2.4H499z"/>
		<path class="st0" d="M524,63.1v4.1c0,5.1-2.5,7.9-7.5,7.9h-2.4v12h-5V55.3h7.4C521.5,55.3,524,58,524,63.1 M514.1,59.8v10.8h2.4
			c1.6,0,2.5-0.7,2.5-3v-4.8c0-2.3-0.9-3-2.5-3H514.1z"/>
		<polygon class="st0" points="525.8,55.3 530.9,55.3 530.9,82.6 539.1,82.6 539.1,87.1 525.8,87.1 		"/>
		<path class="st0" d="M557.1,87.1H552l-0.9-5.8H545l-0.9,5.8h-4.6l5.1-31.9h7.3L557.1,87.1z M545.6,77h4.9L548,60.9L545.6,77z"/>
		<polygon class="st0" points="561.4,76.6 555,55.3 560.3,55.3 564.1,69.8 567.9,55.3 572.7,55.3 566.4,76.6 566.4,87.1 561.4,87.1
					"/>
		<path class="st0" d="M98.5,0H10.1C9.7,0,9.4,0.3,9.4,0.6L0,96l0.2,0.5l0.5,0.2h14.6l0.5-0.2L99,1.1c0.2-0.2,0.2-0.5,0.1-0.7
			C99,0.2,98.8,0,98.5,0"/>
		<path class="st0" d="M214.8,95.6L131.6,0.2L131.1,0h-14.6l-0.5,0.2l-0.2,0.5l9.4,95.4c0,0.3,0.3,0.6,0.7,0.6h88.4
			c0.3,0,0.5-0.2,0.6-0.4C215,96.1,214.9,95.8,214.8,95.6"/>
		<polygon class="st0" points="251.7,15.2 251.7,44.1 247.2,44.1 247.2,15.2 236.9,15.2 236.9,10.9 262,10.9 262,15.2 		"/>
		<path class="st0" d="M281.6,34.8h-14.7l-3.5,9.2h-4.9l13.2-33.1h5.3l13.2,33.1h-4.9L281.6,34.8z M268.5,30.6h11.4l-5.7-14.9
			L268.5,30.6z"/>
		<path class="st0" d="M303.6,30.5h-5v13.5h-4.6V10.9h12.5c6.3,0,10.1,4.4,10.1,9.9c0,4.8-3,8.5-8,9.4l7.9,13.9h-5.3L303.6,30.5
			 M305.7,26.4c3.7,0,6.3-2.2,6.3-5.6c0-3.5-2.5-5.7-6.3-5.7h-7v11.3H305.7z"/>
		<polygon class="st0" points="333,15.2 333,44.1 328.4,44.1 328.4,15.2 318.1,15.2 318.1,10.9 343.3,10.9 343.3,15.2 		"/>
		<path class="st0" d="M347.1,32.8V10.9h4.5v21.7c0,5,2.8,7.9,7.4,7.9c4.7,0,7.3-2.8,7.3-7.9V10.9h4.6v21.8c0,7.8-5.2,12-11.9,12
			C352.3,44.8,347.1,40.6,347.1,32.8"/>
		<path class="st0" d="M382.3,30.5v13.5h-4.6V10.9h12c6.1,0,10.2,4.2,10.2,9.8c0,5.6-4.1,9.8-10.2,9.8H382.3 M389,26.4
			c4,0,6.4-2.2,6.4-5.6c0-3.5-2.4-5.7-6.4-5.7h-6.6v11.3H389z"/>
		<path class="st0" d="M422.7,36.5h-13.5l-2.8,7.6h-6.8l12.7-33.1h7.5l12.6,33.1h-7L422.7,36.5z M411.4,30.6h9.2l-4.6-12.5
			L411.4,30.6z"/>
		<path class="st0" d="M434.7,32.3V10.9h6.4v20.9c0,4.3,2.4,6.6,6.3,6.6c3.9,0,6.3-2.3,6.3-6.6V10.9h6.4v21.4
			c0,8.1-5.7,12.5-12.8,12.5C440.4,44.8,434.7,40.5,434.7,32.3"/>
		<polygon class="st0" points="480.2,17.1 480.2,44.1 473.7,44.1 473.7,17.1 464,17.1 464,10.9 489.9,10.9 489.9,17.1 		"/>
		<path class="st0" d="M508.2,10.2c9,0,17.1,6.6,17.1,17.3c0,10.6-8,17.2-17.1,17.2c-9,0-17-6.6-17-17.2
			C491.2,16.8,499.3,10.2,508.2,10.2 M508.2,38.5c5.1,0,10.4-3.5,10.4-11c0-7.5-5.2-11-10.4-11c-5.1,0-10.3,3.5-10.3,11
			C497.9,35,503.1,38.5,508.2,38.5"/>
		<path class="st0" d="M542.4,10.9c6.5,0,10.1,3.8,10.1,8.9c0,3.4-2,6.2-4.8,7.1c3.2,0.8,5.8,3.7,5.8,7.8c0,5.4-4,9.2-10.2,9.2
			h-12.8V10.9H542.4 M541.4,24.6c2.9,0,4.7-1.6,4.7-4.2s-1.6-4.1-4.8-4.1h-4.5v8.3H541.4z M542,38.7c3.1,0,5-1.6,5-4.3
			c0-2.6-1.7-4.4-4.9-4.4h-5.3v8.7H542z"/>
		<path class="st0" d="M578.2,36.5h-13.4l-2.8,7.6h-6.8l12.7-33.1h7.5L588,44.1h-7L578.2,36.5z M566.9,30.6h9.2l-4.6-12.5
			L566.9,30.6z"/>
		<polygon class="st0" points="611.5,44.1 611.5,30.3 597.1,30.3 597.1,44.1 590.7,44.1 590.7,10.9 597.1,10.9 597.1,24.3
			611.5,24.3 611.5,10.9 618,10.9 618,44.1 		"/>
		<polygon class="st0" points="644.7,44.1 629.7,20.6 629.7,44.1 623.2,44.1 623.2,10.9 631.3,10.9 645,32.9 645,10.9 651.5,10.9
			651.5,44.1 		"/>
		<path class="st0" d="M226.8,25.7l-5-1.1c-2.8-0.6-4.2-2.4-4.2-4.8c0-3.1,2.7-5.5,6.4-5.5c4.4,0,6.4,2.9,6.9,5.3l4.1-1.3
			c-0.8-3.6-3.8-8-11.2-8c-6.1,0-10.9,4.7-10.9,9.9c0,5,3.4,8,8.1,9.1l4.7,1c3.3,0.7,5,2.8,5,5.1c0,2.9-2.2,5.3-6.8,5.3
			c-4.9,0-7.5-3.2-7.9-6.8l-4.4,1.4c0.7,4.6,4.5,9.6,12.3,9.6c7.1,0,11.4-4.7,11.4-9.8C235.4,30.3,232.3,26.9,226.8,25.7"/>
	</g>
</g>
</svg>
